<?xml version="1.0" encoding="UTF-8"?>
<svg id="Layer_2" data-name="Layer 2" xmlns="http://www.w3.org/2000/svg" viewBox="0 0 2032.26 510.24">
  <defs>
    <style>
      .cls-1 {
        fill: #f45f13;
      }

      .cls-2 {
        fill: #fff;
      }
    </style>
  </defs>
  <g id="Layer_1-2" data-name="Layer 1">
    <g>
      <g>
        <path class="cls-2" d="M1039.95,387.52c1.76,5.59,3.62,12.04,5.55,17.49,13.26,1.91,17.32,5.78,9.4,18.27,3.44,5,6.98,10.34,10.61,15.16,13.83-2.29,17.61-.1,14.35,14.29,4.88,3.79,9.57,6.94,14.68,10.4,13.32-7.56,16.59-3.44,18.67,10.18-21.18-1.3-44.91-2.26-65.83-4.55-12.22,5.52-24.48,10.97-36.76,16.35v25.13h1021.65c-7.62-6.94-20.18-17.32-24.95-21.45l-257.05-58.02,22.65-46.28c-7.29-8.94.18-13.26,7.92-16.98.02-5.69.26-13.25-.06-18.77-14.08-5.73-13.35-9.98-3.68-20.15-2.05-5.53-4.12-11.43-6.28-16.88-4.07-.21-16.12-.84-13.56-7.2,5.18-12.9,2.15-13.9-6.35-25.05-6.46.85-17.9,3.43-15.37-7.29,2.06-8.71-8.58-13.93-14.54-18.37-4.52,3.15-13.91,9.21-15.81.42-2.68-12.31-8.75-12.09-20.11-15.32-5.55,6.68-10.57,12.42-17.25,1.92l-2.27-3.55c-3.02-2.06-8.21-2.26-11.67-1.61-13.84,2.6-13.35,19.35-27.65,3.37-18.16,4.73-13.18,4.12-22.06,18.79-5.55,1.63-9.3-1.32-14.02-4.13-4.51,3.69-9.5,7.59-13.88,11.37,3.85,14.57-1.01,16.11-14.31,14.26-3.28,4.81-7.04,10.04-10.16,14.89,8.54,12.37,4.28,16.49-9.22,18.13-1.9,5.66-3.9,11.39-5.73,17.06,10.32,8.97,9.55,13.96-3.1,19.42-.3,6.64-.74,12.99-.21,19.62,13.55,4.5,13.85,10.37,3.05,19.13,2.09,5.92,4.3,11.98,6.29,17.92,13.61.88,17.28,5.27,9.55,17.71l10.31,15.24c4.73-.91,6.98-1.77,11.65-.49,7.28,7.3-3.63,10.84,16.31,24.88l1.29-.75c5.94-3.37,10.15-5.3,15.36.83l.33,2.37c-1.16,1.47-2.27,2.98-4.66,2.83-16.6-1.1-35.5-3.73-51.88-5.53l-47.22-5.03c-5.18-.54-19.94-1.37-23.88-2.76-39.12-13.77-78.55-35.28-116.8-50.64-18.16,7.87-36.27,15.85-54.32,23.95-19.49,8.61-36.86,16.64-58.32,19.24-5.92.72-10.29,4.18-13.46-1.45.16-3.55.47-3.61,2.18-6.63,7.05-4.52,9.8.63,15.48-2.63,13.7-15.66,3.08-18.77,7.85-27.78,4.57-3.31,5.93-2.64,11.32-3.59l6.45-16.99c-9.77-9.1-10.59-14.91,3.05-20.1.51-7.27.69-12,.49-19.27-12.37-5.24-15.56-9.42-3.93-19.36-8.75-27.81-11.02-12.85-19.99-22.88-.89-5.22,1.18-8.02,3.78-12.52-3.28-4.78-6.74-10.1-10.31-14.61-4.96.83-6.96,1.52-11.95.45-6.92-5.57,3.52-11.88-16.87-25.53-4.68,2.54-6.11,3.76-11.5,4.05-9.38-3.98-.81-12.68-24.85-19.67-8.7,10.99-14.36,10.34-19.61-2.83l-18.67.08c-5.17,13.73-11.48,12.94-20.19,2.88-28.08,8.61-13.01,12.64-22.44,19.26-5.67.73-8.59-1.45-13.3-4.52-8.59,6.17-12.49,7.64-14.08,18.79-.67,4.67.16,4.05-2.55,6.86-5.02,1.5-7.54.77-12.73.13-2.17,3.24-6.76,9.48-8.07,12.97-1.96,5.23,2.96,9.73,1.87,15.37-4.01,3.81-7.71,3.8-13.17,4.34l-5.15,17.37c10.82,9.33,8.53,13.88-3.45,19.44-.06,5.97-.32,12.93.16,18.77,12.11,5.78,13.76,11.08,2.98,19.78ZM1591.05,371.73c-7.05-36.27,16.5-71.42,52.71-78.71,36.56-7.36,72.12,16.46,79.24,53.07,7.11,36.61-16.95,72.01-53.61,78.88-36.32,6.8-71.31-16.98-78.35-53.25ZM1147.48,292.88c36.55-6.76,71.66,17.43,78.35,54,6.69,36.57-17.57,71.62-54.14,78.25-36.48,6.61-71.43-17.57-78.1-54.04-6.67-36.47,17.44-71.46,53.9-78.2Z"/>
        <polygon class="cls-1" points="1849.23 487.89 1905.95 471.82 2021.57 510.24 2032.26 510.24 2007.32 488.8 1949.13 437.93 1865.6 436.3 2008.97 323.66 1766 425.33 1783.67 387.03 1790.3 373.73 1772.92 384.49 1628.34 484.09 1777.9 458.15 1849.23 487.89 1849.23 487.89"/>
        <path class="cls-2" d="M1197.78,330.62c-6.95-11.47-18.36-19.53-31.48-22.26-7.51-1.6-13.27-1.25-20.76-.54-22.31,6.22-35.41,16.84-38.72,40.95,7.42-10.37,9.66-13.59,19.7-21.06-17.41,27.88-15.35,57.45,16.98,72.42,13.15,3.7,24.5,4.43,37.12-2.5,11.12-6.07,19.27-16.42,22.57-28.65,3.52-12.99,1.57-26.85-5.4-38.36ZM1179.19,367.39c-3.44,6.98-10.39,11.55-18.16,11.95-11.66.6-21.66-8.24-22.51-19.89-.85-11.65,7.77-21.84,19.4-22.93,7.75-.73,15.28,2.79,19.7,9.19,4.41,6.41,5.02,14.7,1.58,21.68Z"/>
        <path class="cls-2" d="M1694.49,330.17c-6.6-11.08-17.45-18.98-30.02-21.86-7.22-1.66-13.25-1.47-20.45-.66-23.99,4.58-35.66,18.1-39.98,41.55,5.94-9.55,8.53-13.28,17.09-20.46l1.46-1.24.89-.73c-8.26,14.4-14.14,26.63-9.35,44.08,3.13,11.27,10.72,20.78,21.01,26.35,2.07,1.1,4.2,2.09,6.37,2.97,12.95,3.67,23.95,4.09,36.33-2.6,10.91-5.93,18.91-16.07,22.13-28.06,3.59-13.31,1.62-27.52-5.48-39.34ZM1661.43,379.01c-7.62,1.58-15.5-1.09-20.59-6.97-5.11-5.88-6.62-14.06-3.99-21.38,2.64-7.32,9.02-12.65,16.7-13.92,11.56-1.92,22.52,5.76,24.68,17.27,2.14,11.51-5.32,22.63-16.79,25Z"/>
        <path class="cls-2" d="M1711.76,104.3c-51.22,17.42-105.94,32.73-157.82,48.98-21.82,26.41-44.38,54.54-66.88,80.15,14.76-26.23,40.04-68.97,57.05-93.82,33.55-8.16,67.59-15.18,101.17-23.34,5.9-1.43,12.82-2.9,18.79-3.82-12.64-11.95-21.6-16.92-40.02-16.63-60.08.95-117.64,34.39-177.72,10.73-9.7-3.82-18.42-7.71-27.65-12.01l-9.67,4.15c-13.24-6.64-26.33-17.26-39.29-24.76-23.38.09-48.14,1.5-71.15,1.23l-13.21-9.26,13.86-22.87c6.56-1.04,15.75-2.22,22.03-3.65,1.45-4.62,2.94-9.69,4.49-14.23l1.09-.34c6.23-1.9,21.3-3.01,23.04-7.76,8.07-22.12-28.73-8.25-33.7-8.49-1.11-2.32-.77-3.93-.65-6.51-3.75-3.21-19.18-1.75-25.08-1.56-4.71,4.97-14.6,15.74-18.07,21.27,2.39,4.64,4.78,9.44,7.29,14-5.26,8.06-9.43,14.31-15.41,21.94l-1.89-18.56c-6.1-2.56-13-5.67-19.21-7.63-14.47,18.23-38.33,45.58-48.01,65.32-31.3,14.35-63.22,27.78-94.14,41.97-7.92,14.2-14.21,29.39-23.23,42.69-3.67,5.41-8.31,9.44-12.28,14.36-.04,11.23-.26,22.97.12,34.16,4.62,3.88,9.86,8.53,14.74,11.88,6.83-3.13,9.49-3.25,10.63-11.09.52-3.57,7.16-7.42,10.59-9.15,14.53-7.33,29.06-14.76,43.55-22.22l-4.21,22.05c61.6-5.17,114.86,19.62,142.5,77.21,3.82,7.96,6.06,16.99,9.82,25.18,30.47,7.78,27.74,10.07,48.85,33.13,18.73-.02,115.84,1.94,126.43-1.42,14.34-4.56,32.28-17.09,46.05-24.42,6.23-19.74,17.25-57.07,25.06-75.12-2.83-4.26-8.47-12.26-10.63-16.46,12.71-14.83,40.56-42.56,53.64-56.04,5.51-5.68,65.82-28.7,76-31.79,16.03-6.62,33.08-14.01,49.39-19.61,13.86,5.57,26.09,13.83,38.66,19.16,6.31-1.84,13.09-3.68,19.2-5.9-18.06-13.48-36.03-27.87-54.1-41.09ZM1123.83,172.38c-1.59,1.4-19.41,8.4-22.76,9.75-1.4.33-.53.26-2.58-.36.18-4.8,17.95-28.93,22-33.36l23.95-7.5,2.75.24c-1.02,4.97-18.66,27.1-23.34,31.23ZM1285,193.23c-3.59-10.14-31.64-32.15-41.36-40.83-19.41.25-39.21.74-58.57.06,18.3-3.67,41.68-10.56,60.06-15.47.33-.02.66-.07,1-.07,6.13-.08,41.2,34.32,47.46,40.37,2.83,16.95,5.01,42.6,6.45,59.71-4.85-14.65-9.86-29.24-15.03-43.77ZM1333.07,243.93l-11.18-79.06c-1.77-7.78-15.67-17.48-22.17-22.97-13.68-11.39-27.26-22.9-40.73-34.53-23.59,3.33-51.14,10.76-75.81,14.95,19.16-9.25,58.04-22.8,79.38-31.01.31-.01.63-.05.94-.03,4.24.32,67.62,60.24,74.48,67.66-.24,23.68-3.31,60.83-4.9,84.99Z"/>
        <path class="cls-1" d="M1995.2,373.98l37.07,20.36-112.11,19.14,75.04-39.5Z"/>
        <path class="cls-1" d="M1843.36,331.59l35.22,14.92-78.29,43.68,43.07-58.6Z"/>
      </g>
      <g>
        <path class="cls-1" d="M44.11,388.89l15.58,97.44h5.71l15.8-97.44h44.33v121.36h-26.77v-89.97l-14.7,89.97h-42.79l-14.48-89.97v89.97H0v-121.36h44.11Z"/>
        <path class="cls-1" d="M186.95,510.24v-23.92l40.38-97.44h27.87l41.04,97.44v23.92h-27.21v-21.94l-4.61-12.29h-45.65l-4.61,12.29v21.94h-27.21ZM210.87,380.55v-15.58l5.05-8.34h21.95v15.36l-5.49,8.56h-21.51ZM255.2,452.09l-12.07-30.94h-3.51l-11.85,30.94h27.43ZM251.47,356.63h21.95v15.36l-5.49,8.56h-21.73v-15.58l5.27-8.34Z"/>
        <path class="cls-1" d="M356.81,449.89v-37.09l26.99-23.92h80.1v23.92h-80.1v19.09l82.29,18.43v35.99l-27.43,23.92h-79.88v-23.92h79.88v-18.21l-81.85-18.21Z"/>
        <path class="cls-1" d="M526.55,449.89v-37.09l26.99-23.92h80.1v23.92h-80.1v19.09l82.29,18.43v35.99l-27.43,23.92h-79.88v-23.92h79.88v-18.21l-81.85-18.21Z"/>
        <path class="cls-1" d="M697.18,510.24v-23.92l40.38-97.44h27.87l41.04,97.44v23.92h-27.21v-21.94l-4.61-12.29h-45.65l-4.61,12.29v21.94h-27.21ZM765.43,452.09l-12.07-30.94h-3.51l-11.85,30.94h27.43Z"/>
        <path class="cls-1" d="M899.73,388.89l50.25,61.67v-61.67h27.21v121.36h-27.21v-21.51l-54.86-66.27v87.78h-27.21v-121.36h31.82Z"/>
      </g>
      <g>
        <polygon class="cls-2" points="331.63 319.66 290.91 236.04 178.02 236.04 218.45 153.14 250.53 153.14 220.87 92.25 110.11 319.66 0 319.66 155.89 0 285.86 0 441.74 319.66 331.63 319.66"/>
        <polygon class="cls-2" points="822.22 319.66 666.33 0 776.44 0 887.2 227.42 997.97 0 1108.07 0 952.19 319.66 822.22 319.66"/>
        <polygon class="cls-2" points="466.33 319.66 466.33 83.07 363.3 83.07 322.14 0 634.73 0 675.23 83.07 569.07 83.07 569.07 319.66 466.33 319.66"/>
      </g>
    </g>
  </g>
</svg>